G04 #@! TF.FileFunction,Copper,L1,Top,Signal*
%FSLAX46Y46*%
G04 Gerber Fmt 4.6, Leading zero omitted, Abs format (unit mm)*
G04 Created by KiCad (PCBNEW 4.0.0-rc1-stable) date 11/12/2015 8:05:50 PM*
%MOMM*%
G01*
G04 APERTURE LIST*
%ADD10C,0.100000*%
%ADD11R,0.800000X1.200000*%
%ADD12R,1.200000X0.800000*%
%ADD13R,1.400000X0.800000*%
%ADD14R,0.800000X1.400000*%
%ADD15R,0.800000X0.750000*%
%ADD16R,1.900000X1.900000*%
%ADD17R,1.600000X2.100000*%
%ADD18R,1.350000X0.400000*%
%ADD19R,1.727200X1.727200*%
%ADD20O,1.727200X1.727200*%
%ADD21R,1.450000X0.700000*%
%ADD22R,1.501140X1.501140*%
%ADD23R,0.750000X0.800000*%
%ADD24R,0.800100X0.800100*%
%ADD25R,0.500000X0.900000*%
%ADD26C,0.685800*%
%ADD27C,0.250000*%
%ADD28C,0.254000*%
G04 APERTURE END LIST*
D10*
D11*
X145130000Y-79600000D03*
D12*
X158430000Y-78100000D03*
D13*
X143930000Y-64900000D03*
D12*
X143830000Y-78100000D03*
D14*
X146330000Y-79500000D03*
X147530000Y-79500000D03*
X148730000Y-79500000D03*
X149930000Y-79500000D03*
X151130000Y-79500000D03*
X152330000Y-79500000D03*
X153530000Y-79500000D03*
X154730000Y-79500000D03*
X155930000Y-79500000D03*
D11*
X157130000Y-79600000D03*
D13*
X143930000Y-66100000D03*
X143930000Y-67300000D03*
X143930000Y-68500000D03*
X143930000Y-69700000D03*
X143930000Y-70900000D03*
X143930000Y-72100000D03*
X143930000Y-73300000D03*
X143930000Y-74500000D03*
X143930000Y-75700000D03*
X143930000Y-76900000D03*
X158330000Y-76900000D03*
X158330000Y-75700000D03*
X158330000Y-74500000D03*
X158330000Y-73300000D03*
X158330000Y-72100000D03*
X158330000Y-70900000D03*
X158330000Y-69700000D03*
X158330000Y-68500000D03*
X158330000Y-67300000D03*
X158330000Y-66100000D03*
X158330000Y-64900000D03*
D15*
X151372000Y-81534000D03*
X149872000Y-81534000D03*
D16*
X144175540Y-92750000D03*
X144175540Y-85050000D03*
X144175540Y-87700000D03*
D17*
X146725540Y-85800000D03*
D18*
X146850540Y-87599100D03*
X146850540Y-88249100D03*
X146850540Y-88899100D03*
X146850540Y-89549100D03*
X146850540Y-90199100D03*
D17*
X146725540Y-92000000D03*
D16*
X144175540Y-90100000D03*
D19*
X157480000Y-92456000D03*
D20*
X154940000Y-92456000D03*
X157480000Y-89916000D03*
X154940000Y-89916000D03*
X157480000Y-87376000D03*
X154940000Y-87376000D03*
D21*
X149571000Y-85455000D03*
X154721000Y-85455000D03*
X154721000Y-83455000D03*
X149571000Y-83455000D03*
D22*
X144145000Y-82677000D03*
D23*
X149225000Y-90690000D03*
X149225000Y-92190000D03*
D24*
X152842000Y-90312240D03*
X150942000Y-90312240D03*
X151892000Y-92311220D03*
D25*
X152642000Y-88773000D03*
X151142000Y-88773000D03*
D26*
X152527000Y-74930000D03*
X149225000Y-89408000D03*
X145288000Y-66802000D03*
X152654000Y-77597000D03*
X145415000Y-73152000D03*
X153162000Y-81280000D03*
X152273000Y-67691000D03*
X150114000Y-88646000D03*
X148844000Y-72136000D03*
X149479000Y-73279000D03*
X147193000Y-74041000D03*
X155829000Y-69723000D03*
X158623000Y-83058000D03*
X157861000Y-81407000D03*
X157099000Y-85471000D03*
X144145000Y-80899000D03*
X145288000Y-74295000D03*
X155194000Y-75311000D03*
X152146000Y-87376000D03*
X151892000Y-93345000D03*
X150749000Y-77851000D03*
X148082000Y-82042000D03*
D27*
X145288000Y-75438000D02*
X146812000Y-75438000D01*
X147320000Y-74930000D02*
X152527000Y-74930000D01*
X146812000Y-75438000D02*
X147320000Y-74930000D01*
X153670000Y-89027000D02*
X153797000Y-89027000D01*
X153797000Y-89027000D02*
X154940000Y-87884000D01*
X154940000Y-87884000D02*
X154940000Y-87376000D01*
X152146000Y-83947000D02*
X152654000Y-83439000D01*
X152654000Y-83439000D02*
X154705000Y-83439000D01*
X154705000Y-83439000D02*
X154721000Y-83455000D01*
X149225000Y-90690000D02*
X149237000Y-90690000D01*
X149237000Y-90690000D02*
X149860000Y-91313000D01*
X153416000Y-88773000D02*
X152642000Y-88773000D01*
X153670000Y-89027000D02*
X153416000Y-88773000D01*
X153670000Y-90932000D02*
X153670000Y-89027000D01*
X153289000Y-91313000D02*
X153670000Y-90932000D01*
X149860000Y-91313000D02*
X153289000Y-91313000D01*
X149225000Y-90690000D02*
X149225000Y-89408000D01*
X146850540Y-90199100D02*
X148734100Y-90199100D01*
X148734100Y-90199100D02*
X149225000Y-90690000D01*
X152146000Y-85725000D02*
X152146000Y-86106000D01*
X152146000Y-84201000D02*
X152146000Y-85725000D01*
X153416000Y-87376000D02*
X154940000Y-87376000D01*
X152146000Y-86106000D02*
X152642000Y-86602000D01*
X152642000Y-86602000D02*
X153416000Y-87376000D01*
X148730000Y-79500000D02*
X147530000Y-79500000D01*
X152146000Y-84201000D02*
X152146000Y-83947000D01*
X152146000Y-83947000D02*
X152146000Y-82308000D01*
X152146000Y-82308000D02*
X151372000Y-81534000D01*
X143930000Y-66100000D02*
X144586000Y-66100000D01*
X144586000Y-66100000D02*
X145288000Y-66802000D01*
X147530000Y-79500000D02*
X147530000Y-78315000D01*
X147530000Y-78315000D02*
X147486000Y-78359000D01*
X147486000Y-78359000D02*
X145923000Y-78359000D01*
X145923000Y-78359000D02*
X145288000Y-77724000D01*
X145288000Y-77724000D02*
X145288000Y-75438000D01*
X145288000Y-75438000D02*
X146050000Y-74676000D01*
X146050000Y-74676000D02*
X146050000Y-73787000D01*
X146050000Y-73787000D02*
X145415000Y-73152000D01*
X158330000Y-64900000D02*
X149482000Y-64900000D01*
X151130000Y-79500000D02*
X151130000Y-81292000D01*
X151130000Y-81292000D02*
X151372000Y-81534000D01*
X149571000Y-83455000D02*
X149876000Y-83455000D01*
X149571000Y-83455000D02*
X149571000Y-83335000D01*
X153162000Y-81280000D02*
X152908000Y-81534000D01*
X152908000Y-81534000D02*
X151372000Y-81534000D01*
X157941000Y-68500000D02*
X158330000Y-68500000D01*
X158430000Y-78100000D02*
X153157000Y-78100000D01*
X153157000Y-78100000D02*
X152654000Y-77597000D01*
X151130000Y-79500000D02*
X151130000Y-79121000D01*
X151130000Y-79121000D02*
X152654000Y-77597000D01*
X149482000Y-64900000D02*
X143930000Y-64900000D01*
X152273000Y-67691000D02*
X149482000Y-64900000D01*
X150942000Y-90312240D02*
X150942000Y-90236000D01*
X150942000Y-90236000D02*
X150114000Y-89408000D01*
X150114000Y-89408000D02*
X150114000Y-88646000D01*
X146304000Y-72136000D02*
X145068000Y-70900000D01*
X145068000Y-70900000D02*
X143930000Y-70900000D01*
X148844000Y-72136000D02*
X146304000Y-72136000D01*
X149479000Y-73279000D02*
X146558000Y-73279000D01*
X146558000Y-73279000D02*
X145379000Y-72100000D01*
X145379000Y-72100000D02*
X143930000Y-72100000D01*
X147193000Y-74041000D02*
X153162000Y-74041000D01*
X154432000Y-73279000D02*
X156083000Y-73279000D01*
X153162000Y-74041000D02*
X153924000Y-73279000D01*
X153924000Y-73279000D02*
X154432000Y-73279000D01*
X156083000Y-73279000D02*
X156972000Y-72390000D01*
X156972000Y-72390000D02*
X156972000Y-71374000D01*
X157446000Y-70900000D02*
X156972000Y-71374000D01*
X155829000Y-69723000D02*
X157006000Y-70900000D01*
X157006000Y-70900000D02*
X157446000Y-70900000D01*
X157446000Y-70900000D02*
X158330000Y-70900000D01*
X157768000Y-70900000D02*
X158330000Y-70900000D01*
X156337000Y-83839000D02*
X154721000Y-85455000D01*
X156337000Y-81153000D02*
X156337000Y-83839000D01*
X156845000Y-80645000D02*
X156337000Y-81153000D01*
X158496000Y-80645000D02*
X156845000Y-80645000D01*
X158623000Y-80772000D02*
X158496000Y-80645000D01*
X158623000Y-83058000D02*
X158623000Y-80772000D01*
X157861000Y-84709000D02*
X157861000Y-81407000D01*
X157099000Y-85471000D02*
X157861000Y-84709000D01*
X146725540Y-85800000D02*
X146125000Y-85800000D01*
X146125000Y-85800000D02*
X145375000Y-85050000D01*
X145375000Y-85050000D02*
X144175540Y-85050000D01*
X144175540Y-85050000D02*
X144175540Y-87700000D01*
X144175540Y-87700000D02*
X144175540Y-90100000D01*
X144175540Y-90100000D02*
X144175540Y-92750000D01*
X144175540Y-92750000D02*
X144925540Y-92000000D01*
X144925540Y-92000000D02*
X146725540Y-92000000D01*
X144145000Y-82677000D02*
X144145000Y-80899000D01*
X145083000Y-74500000D02*
X143930000Y-74500000D01*
X145288000Y-74295000D02*
X145083000Y-74500000D01*
X155583000Y-75700000D02*
X158330000Y-75700000D01*
X155194000Y-75311000D02*
X155583000Y-75700000D01*
X157726000Y-75700000D02*
X158330000Y-75700000D01*
X149930000Y-77527000D02*
X149930000Y-77019000D01*
X149930000Y-78613000D02*
X149930000Y-77527000D01*
X154432000Y-74549000D02*
X158281000Y-74549000D01*
X153035000Y-75946000D02*
X154432000Y-74549000D01*
X151003000Y-75946000D02*
X153035000Y-75946000D01*
X149930000Y-77019000D02*
X151003000Y-75946000D01*
X158281000Y-74549000D02*
X158330000Y-74500000D01*
X151892000Y-92311220D02*
X151892000Y-93345000D01*
X151384000Y-83046000D02*
X149872000Y-81534000D01*
X151384000Y-86614000D02*
X151384000Y-83046000D01*
X152146000Y-87376000D02*
X151384000Y-86614000D01*
X149930000Y-78613000D02*
X149987000Y-78613000D01*
X149987000Y-78613000D02*
X150749000Y-77851000D01*
X149930000Y-78613000D02*
X149930000Y-79500000D01*
X151892000Y-92311220D02*
X154795220Y-92311220D01*
X154795220Y-92311220D02*
X154940000Y-92456000D01*
X149225000Y-92190000D02*
X151770780Y-92190000D01*
X151770780Y-92190000D02*
X151892000Y-92311220D01*
X157783000Y-74500000D02*
X158330000Y-74500000D01*
X149860000Y-79430000D02*
X149930000Y-79500000D01*
X150184000Y-79246000D02*
X149930000Y-79500000D01*
X149872000Y-81534000D02*
X149872000Y-79558000D01*
X149872000Y-79558000D02*
X149930000Y-79500000D01*
X151142000Y-88773000D02*
X151142000Y-88785000D01*
X151142000Y-88785000D02*
X152019000Y-89662000D01*
X152288240Y-90312240D02*
X152842000Y-90312240D01*
X152019000Y-90043000D02*
X152288240Y-90312240D01*
X152019000Y-89662000D02*
X152019000Y-90043000D01*
X146850540Y-87599100D02*
X147477900Y-87599100D01*
X147477900Y-87599100D02*
X148336000Y-86741000D01*
X148336000Y-86741000D02*
X148336000Y-85852000D01*
X151142000Y-88773000D02*
X151142000Y-87261000D01*
X149098000Y-86614000D02*
X148336000Y-85852000D01*
X150495000Y-86614000D02*
X149098000Y-86614000D01*
X151142000Y-87261000D02*
X150495000Y-86614000D01*
X148336000Y-85852000D02*
X148336000Y-83439000D01*
X148336000Y-83439000D02*
X148082000Y-83185000D01*
X148082000Y-83185000D02*
X148082000Y-82042000D01*
X151142000Y-89039000D02*
X151142000Y-88773000D01*
D28*
G36*
X149098000Y-87374000D02*
X150180198Y-87374000D01*
X150382000Y-87575802D01*
X150382000Y-87698429D01*
X150309370Y-87668270D01*
X149920337Y-87667931D01*
X149560788Y-87816493D01*
X149285460Y-88091341D01*
X149136270Y-88450630D01*
X149135931Y-88839663D01*
X149284493Y-89199212D01*
X149354000Y-89268840D01*
X149354000Y-89408000D01*
X149411852Y-89698839D01*
X149433906Y-89731844D01*
X149352000Y-89813750D01*
X149352000Y-90563000D01*
X149372000Y-90563000D01*
X149372000Y-90817000D01*
X149352000Y-90817000D01*
X149352000Y-90837000D01*
X149098000Y-90837000D01*
X149098000Y-90817000D01*
X148373750Y-90817000D01*
X148215000Y-90975750D01*
X148215000Y-91216309D01*
X148311673Y-91449698D01*
X148313043Y-91451068D01*
X148253569Y-91538110D01*
X148202560Y-91790000D01*
X148202560Y-92590000D01*
X148246838Y-92825317D01*
X148385910Y-93041441D01*
X148598110Y-93186431D01*
X148850000Y-93237440D01*
X149600000Y-93237440D01*
X149835317Y-93193162D01*
X150051441Y-93054090D01*
X150122563Y-92950000D01*
X150890984Y-92950000D01*
X150955519Y-93050291D01*
X150914270Y-93149630D01*
X150913931Y-93538663D01*
X150938862Y-93599000D01*
X147845027Y-93599000D01*
X147976981Y-93514090D01*
X148121971Y-93301890D01*
X148172980Y-93050000D01*
X148172980Y-90950000D01*
X148128702Y-90714683D01*
X148100375Y-90670661D01*
X148160540Y-90525410D01*
X148160540Y-90457850D01*
X148001790Y-90299100D01*
X147843473Y-90299100D01*
X147976981Y-90213190D01*
X148010802Y-90163691D01*
X148215000Y-90163691D01*
X148215000Y-90404250D01*
X148373750Y-90563000D01*
X149098000Y-90563000D01*
X149098000Y-89813750D01*
X148939250Y-89655000D01*
X148723690Y-89655000D01*
X148490301Y-89751673D01*
X148311673Y-89930302D01*
X148215000Y-90163691D01*
X148010802Y-90163691D01*
X148121971Y-90000990D01*
X148127575Y-89973315D01*
X148160540Y-89940350D01*
X148160540Y-89872790D01*
X148152072Y-89852347D01*
X148172980Y-89749100D01*
X148172980Y-89349100D01*
X148148596Y-89219511D01*
X148172980Y-89099100D01*
X148172980Y-88699100D01*
X148148596Y-88569511D01*
X148172980Y-88449100D01*
X148172980Y-88049100D01*
X148161850Y-87989952D01*
X148830927Y-87320875D01*
X149098000Y-87374000D01*
X149098000Y-87374000D01*
G37*
X149098000Y-87374000D02*
X150180198Y-87374000D01*
X150382000Y-87575802D01*
X150382000Y-87698429D01*
X150309370Y-87668270D01*
X149920337Y-87667931D01*
X149560788Y-87816493D01*
X149285460Y-88091341D01*
X149136270Y-88450630D01*
X149135931Y-88839663D01*
X149284493Y-89199212D01*
X149354000Y-89268840D01*
X149354000Y-89408000D01*
X149411852Y-89698839D01*
X149433906Y-89731844D01*
X149352000Y-89813750D01*
X149352000Y-90563000D01*
X149372000Y-90563000D01*
X149372000Y-90817000D01*
X149352000Y-90817000D01*
X149352000Y-90837000D01*
X149098000Y-90837000D01*
X149098000Y-90817000D01*
X148373750Y-90817000D01*
X148215000Y-90975750D01*
X148215000Y-91216309D01*
X148311673Y-91449698D01*
X148313043Y-91451068D01*
X148253569Y-91538110D01*
X148202560Y-91790000D01*
X148202560Y-92590000D01*
X148246838Y-92825317D01*
X148385910Y-93041441D01*
X148598110Y-93186431D01*
X148850000Y-93237440D01*
X149600000Y-93237440D01*
X149835317Y-93193162D01*
X150051441Y-93054090D01*
X150122563Y-92950000D01*
X150890984Y-92950000D01*
X150955519Y-93050291D01*
X150914270Y-93149630D01*
X150913931Y-93538663D01*
X150938862Y-93599000D01*
X147845027Y-93599000D01*
X147976981Y-93514090D01*
X148121971Y-93301890D01*
X148172980Y-93050000D01*
X148172980Y-90950000D01*
X148128702Y-90714683D01*
X148100375Y-90670661D01*
X148160540Y-90525410D01*
X148160540Y-90457850D01*
X148001790Y-90299100D01*
X147843473Y-90299100D01*
X147976981Y-90213190D01*
X148010802Y-90163691D01*
X148215000Y-90163691D01*
X148215000Y-90404250D01*
X148373750Y-90563000D01*
X149098000Y-90563000D01*
X149098000Y-89813750D01*
X148939250Y-89655000D01*
X148723690Y-89655000D01*
X148490301Y-89751673D01*
X148311673Y-89930302D01*
X148215000Y-90163691D01*
X148010802Y-90163691D01*
X148121971Y-90000990D01*
X148127575Y-89973315D01*
X148160540Y-89940350D01*
X148160540Y-89872790D01*
X148152072Y-89852347D01*
X148172980Y-89749100D01*
X148172980Y-89349100D01*
X148148596Y-89219511D01*
X148172980Y-89099100D01*
X148172980Y-88699100D01*
X148148596Y-88569511D01*
X148172980Y-88449100D01*
X148172980Y-88049100D01*
X148161850Y-87989952D01*
X148830927Y-87320875D01*
X149098000Y-87374000D01*
G36*
X155530000Y-80847440D02*
X155644688Y-80847440D01*
X155634852Y-80862161D01*
X155577000Y-81153000D01*
X155577000Y-82471943D01*
X155572309Y-82470000D01*
X155006750Y-82470000D01*
X154848000Y-82628750D01*
X154848000Y-83328000D01*
X154868000Y-83328000D01*
X154868000Y-83582000D01*
X154848000Y-83582000D01*
X154848000Y-83602000D01*
X154594000Y-83602000D01*
X154594000Y-83582000D01*
X153519750Y-83582000D01*
X153361000Y-83740750D01*
X153361000Y-83931310D01*
X153457673Y-84164699D01*
X153636302Y-84343327D01*
X153869691Y-84440000D01*
X154435250Y-84440000D01*
X154593998Y-84281252D01*
X154593998Y-84440000D01*
X154661198Y-84440000D01*
X154643638Y-84457560D01*
X153996000Y-84457560D01*
X153760683Y-84501838D01*
X153544559Y-84640910D01*
X153399569Y-84853110D01*
X153348560Y-85105000D01*
X153348560Y-85805000D01*
X153392838Y-86040317D01*
X153531910Y-86256441D01*
X153744110Y-86401431D01*
X153824635Y-86417738D01*
X153657312Y-86601053D01*
X153485042Y-87016974D01*
X153606183Y-87249000D01*
X154813000Y-87249000D01*
X154813000Y-87229000D01*
X155067000Y-87229000D01*
X155067000Y-87249000D01*
X155087000Y-87249000D01*
X155087000Y-87503000D01*
X155067000Y-87503000D01*
X155067000Y-87523000D01*
X154813000Y-87523000D01*
X154813000Y-87503000D01*
X153606183Y-87503000D01*
X153485042Y-87735026D01*
X153657312Y-88150947D01*
X154051510Y-88582821D01*
X154174228Y-88640336D01*
X153850971Y-88856330D01*
X153528302Y-89339238D01*
X153527000Y-89338348D01*
X153527000Y-89058750D01*
X153368250Y-88900000D01*
X152767000Y-88900000D01*
X152767000Y-88920000D01*
X152517000Y-88920000D01*
X152517000Y-88900000D01*
X152495000Y-88900000D01*
X152495000Y-88646000D01*
X152517000Y-88646000D01*
X152517000Y-88626000D01*
X152767000Y-88626000D01*
X152767000Y-88646000D01*
X153368250Y-88646000D01*
X153527000Y-88487250D01*
X153527000Y-88196690D01*
X153430327Y-87963301D01*
X153251698Y-87784673D01*
X153066937Y-87708142D01*
X153123730Y-87571370D01*
X153124069Y-87182337D01*
X152975507Y-86822788D01*
X152700659Y-86547460D01*
X152341370Y-86398270D01*
X152242986Y-86398184D01*
X152144000Y-86299198D01*
X152144000Y-83046000D01*
X152130612Y-82978690D01*
X153361000Y-82978690D01*
X153361000Y-83169250D01*
X153519750Y-83328000D01*
X154594000Y-83328000D01*
X154594000Y-82628750D01*
X154435250Y-82470000D01*
X153869691Y-82470000D01*
X153636302Y-82566673D01*
X153457673Y-82745301D01*
X153361000Y-82978690D01*
X152130612Y-82978690D01*
X152086148Y-82755161D01*
X151934922Y-82528834D01*
X152131698Y-82447327D01*
X152310327Y-82268699D01*
X152407000Y-82035310D01*
X152407000Y-81819750D01*
X152248250Y-81661000D01*
X151499000Y-81661000D01*
X151499000Y-81681000D01*
X151245000Y-81681000D01*
X151245000Y-81661000D01*
X151225000Y-81661000D01*
X151225000Y-81407000D01*
X151245000Y-81407000D01*
X151245000Y-81387000D01*
X151499000Y-81387000D01*
X151499000Y-81407000D01*
X152248250Y-81407000D01*
X152407000Y-81248250D01*
X152407000Y-81032690D01*
X152330267Y-80847440D01*
X152730000Y-80847440D01*
X152937342Y-80808426D01*
X153130000Y-80847440D01*
X153930000Y-80847440D01*
X154137342Y-80808426D01*
X154330000Y-80847440D01*
X155130000Y-80847440D01*
X155337342Y-80808426D01*
X155530000Y-80847440D01*
X155530000Y-80847440D01*
G37*
X155530000Y-80847440D02*
X155644688Y-80847440D01*
X155634852Y-80862161D01*
X155577000Y-81153000D01*
X155577000Y-82471943D01*
X155572309Y-82470000D01*
X155006750Y-82470000D01*
X154848000Y-82628750D01*
X154848000Y-83328000D01*
X154868000Y-83328000D01*
X154868000Y-83582000D01*
X154848000Y-83582000D01*
X154848000Y-83602000D01*
X154594000Y-83602000D01*
X154594000Y-83582000D01*
X153519750Y-83582000D01*
X153361000Y-83740750D01*
X153361000Y-83931310D01*
X153457673Y-84164699D01*
X153636302Y-84343327D01*
X153869691Y-84440000D01*
X154435250Y-84440000D01*
X154593998Y-84281252D01*
X154593998Y-84440000D01*
X154661198Y-84440000D01*
X154643638Y-84457560D01*
X153996000Y-84457560D01*
X153760683Y-84501838D01*
X153544559Y-84640910D01*
X153399569Y-84853110D01*
X153348560Y-85105000D01*
X153348560Y-85805000D01*
X153392838Y-86040317D01*
X153531910Y-86256441D01*
X153744110Y-86401431D01*
X153824635Y-86417738D01*
X153657312Y-86601053D01*
X153485042Y-87016974D01*
X153606183Y-87249000D01*
X154813000Y-87249000D01*
X154813000Y-87229000D01*
X155067000Y-87229000D01*
X155067000Y-87249000D01*
X155087000Y-87249000D01*
X155087000Y-87503000D01*
X155067000Y-87503000D01*
X155067000Y-87523000D01*
X154813000Y-87523000D01*
X154813000Y-87503000D01*
X153606183Y-87503000D01*
X153485042Y-87735026D01*
X153657312Y-88150947D01*
X154051510Y-88582821D01*
X154174228Y-88640336D01*
X153850971Y-88856330D01*
X153528302Y-89339238D01*
X153527000Y-89338348D01*
X153527000Y-89058750D01*
X153368250Y-88900000D01*
X152767000Y-88900000D01*
X152767000Y-88920000D01*
X152517000Y-88920000D01*
X152517000Y-88900000D01*
X152495000Y-88900000D01*
X152495000Y-88646000D01*
X152517000Y-88646000D01*
X152517000Y-88626000D01*
X152767000Y-88626000D01*
X152767000Y-88646000D01*
X153368250Y-88646000D01*
X153527000Y-88487250D01*
X153527000Y-88196690D01*
X153430327Y-87963301D01*
X153251698Y-87784673D01*
X153066937Y-87708142D01*
X153123730Y-87571370D01*
X153124069Y-87182337D01*
X152975507Y-86822788D01*
X152700659Y-86547460D01*
X152341370Y-86398270D01*
X152242986Y-86398184D01*
X152144000Y-86299198D01*
X152144000Y-83046000D01*
X152130612Y-82978690D01*
X153361000Y-82978690D01*
X153361000Y-83169250D01*
X153519750Y-83328000D01*
X154594000Y-83328000D01*
X154594000Y-82628750D01*
X154435250Y-82470000D01*
X153869691Y-82470000D01*
X153636302Y-82566673D01*
X153457673Y-82745301D01*
X153361000Y-82978690D01*
X152130612Y-82978690D01*
X152086148Y-82755161D01*
X151934922Y-82528834D01*
X152131698Y-82447327D01*
X152310327Y-82268699D01*
X152407000Y-82035310D01*
X152407000Y-81819750D01*
X152248250Y-81661000D01*
X151499000Y-81661000D01*
X151499000Y-81681000D01*
X151245000Y-81681000D01*
X151245000Y-81661000D01*
X151225000Y-81661000D01*
X151225000Y-81407000D01*
X151245000Y-81407000D01*
X151245000Y-81387000D01*
X151499000Y-81387000D01*
X151499000Y-81407000D01*
X152248250Y-81407000D01*
X152407000Y-81248250D01*
X152407000Y-81032690D01*
X152330267Y-80847440D01*
X152730000Y-80847440D01*
X152937342Y-80808426D01*
X153130000Y-80847440D01*
X153930000Y-80847440D01*
X154137342Y-80808426D01*
X154330000Y-80847440D01*
X155130000Y-80847440D01*
X155337342Y-80808426D01*
X155530000Y-80847440D01*
G36*
X149698000Y-83328000D02*
X149718000Y-83328000D01*
X149718000Y-83582000D01*
X149698000Y-83582000D01*
X149698000Y-84281250D01*
X149856750Y-84440000D01*
X150422309Y-84440000D01*
X150624000Y-84356457D01*
X150624000Y-84560573D01*
X150547890Y-84508569D01*
X150296000Y-84457560D01*
X149096000Y-84457560D01*
X149096000Y-84440000D01*
X149285250Y-84440000D01*
X149444000Y-84281250D01*
X149444000Y-83582000D01*
X149424000Y-83582000D01*
X149424000Y-83328000D01*
X149444000Y-83328000D01*
X149444000Y-83308000D01*
X149698000Y-83308000D01*
X149698000Y-83328000D01*
X149698000Y-83328000D01*
G37*
X149698000Y-83328000D02*
X149718000Y-83328000D01*
X149718000Y-83582000D01*
X149698000Y-83582000D01*
X149698000Y-84281250D01*
X149856750Y-84440000D01*
X150422309Y-84440000D01*
X150624000Y-84356457D01*
X150624000Y-84560573D01*
X150547890Y-84508569D01*
X150296000Y-84457560D01*
X149096000Y-84457560D01*
X149096000Y-84440000D01*
X149285250Y-84440000D01*
X149444000Y-84281250D01*
X149444000Y-83582000D01*
X149424000Y-83582000D01*
X149424000Y-83328000D01*
X149444000Y-83328000D01*
X149444000Y-83308000D01*
X149698000Y-83308000D01*
X149698000Y-83328000D01*
G36*
X146363493Y-74594212D02*
X146638341Y-74869540D01*
X146997630Y-75018730D01*
X147386663Y-75019069D01*
X147746212Y-74870507D01*
X147815840Y-74801000D01*
X153105198Y-74801000D01*
X152720198Y-75186000D01*
X151003000Y-75186000D01*
X150712161Y-75243852D01*
X150465599Y-75408599D01*
X149392599Y-76481599D01*
X149227852Y-76728161D01*
X149170000Y-77019000D01*
X149170000Y-78165000D01*
X149015750Y-78165000D01*
X148857000Y-78323750D01*
X148857000Y-79373000D01*
X148877000Y-79373000D01*
X148877000Y-79627000D01*
X148857000Y-79627000D01*
X148857000Y-80676250D01*
X148961742Y-80780992D01*
X148875569Y-80907110D01*
X148824560Y-81159000D01*
X148824560Y-81401689D01*
X148636659Y-81213460D01*
X148277370Y-81064270D01*
X147888337Y-81063931D01*
X147528788Y-81212493D01*
X147253460Y-81487341D01*
X147104270Y-81846630D01*
X147103931Y-82235663D01*
X147252493Y-82595212D01*
X147322000Y-82664840D01*
X147322000Y-83185000D01*
X147379852Y-83475839D01*
X147544599Y-83722401D01*
X147576000Y-83753802D01*
X147576000Y-84112778D01*
X147525540Y-84102560D01*
X145925540Y-84102560D01*
X145772980Y-84131266D01*
X145772980Y-84100000D01*
X145728702Y-83864683D01*
X145589630Y-83648559D01*
X145509365Y-83593716D01*
X145543010Y-83427570D01*
X145543010Y-81926430D01*
X145498732Y-81691113D01*
X145359660Y-81474989D01*
X145147460Y-81329999D01*
X145034395Y-81307103D01*
X145122730Y-81094370D01*
X145123069Y-80705337D01*
X145003000Y-80414747D01*
X145003000Y-79727000D01*
X144253750Y-79727000D01*
X144095000Y-79885750D01*
X144095000Y-79921056D01*
X143951337Y-79920931D01*
X143591788Y-80069493D01*
X143316460Y-80344341D01*
X143263500Y-80471883D01*
X143263500Y-79135000D01*
X143544250Y-79135000D01*
X143703000Y-78976250D01*
X143703000Y-78227000D01*
X143957000Y-78227000D01*
X143957000Y-78976250D01*
X144095000Y-79114250D01*
X144095000Y-79314250D01*
X144253750Y-79473000D01*
X145003000Y-79473000D01*
X145003000Y-78775991D01*
X145065000Y-78626310D01*
X145065000Y-78523750D01*
X145257000Y-78523750D01*
X145257000Y-79473000D01*
X145277000Y-79473000D01*
X145277000Y-79727000D01*
X145257000Y-79727000D01*
X145257000Y-80676250D01*
X145415750Y-80835000D01*
X145656310Y-80835000D01*
X145726007Y-80806130D01*
X145930000Y-80847440D01*
X146730000Y-80847440D01*
X146938850Y-80808142D01*
X147003690Y-80835000D01*
X147244250Y-80835000D01*
X147403000Y-80676250D01*
X147403000Y-79627000D01*
X147657000Y-79627000D01*
X147657000Y-80676250D01*
X147815750Y-80835000D01*
X148056310Y-80835000D01*
X148130000Y-80804477D01*
X148203690Y-80835000D01*
X148444250Y-80835000D01*
X148603000Y-80676250D01*
X148603000Y-79627000D01*
X147657000Y-79627000D01*
X147403000Y-79627000D01*
X147383000Y-79627000D01*
X147383000Y-79373000D01*
X147403000Y-79373000D01*
X147403000Y-78323750D01*
X147657000Y-78323750D01*
X147657000Y-79373000D01*
X148603000Y-79373000D01*
X148603000Y-78323750D01*
X148444250Y-78165000D01*
X148203690Y-78165000D01*
X148130000Y-78195523D01*
X148056310Y-78165000D01*
X147815750Y-78165000D01*
X147657000Y-78323750D01*
X147403000Y-78323750D01*
X147244250Y-78165000D01*
X147003690Y-78165000D01*
X146933993Y-78193870D01*
X146730000Y-78152560D01*
X145930000Y-78152560D01*
X145694683Y-78196838D01*
X145478559Y-78335910D01*
X145458683Y-78365000D01*
X145415750Y-78365000D01*
X145257000Y-78523750D01*
X145065000Y-78523750D01*
X145065000Y-78385750D01*
X144906250Y-78227000D01*
X143957000Y-78227000D01*
X143703000Y-78227000D01*
X143683000Y-78227000D01*
X143683000Y-77973000D01*
X143703000Y-77973000D01*
X143703000Y-77953000D01*
X143957000Y-77953000D01*
X143957000Y-77973000D01*
X144906250Y-77973000D01*
X145065000Y-77814250D01*
X145065000Y-77774669D01*
X145081441Y-77764090D01*
X145226431Y-77551890D01*
X145277440Y-77300000D01*
X145277440Y-76500000D01*
X145238426Y-76292658D01*
X145277440Y-76100000D01*
X145277440Y-75300000D01*
X145272338Y-75272887D01*
X145481663Y-75273069D01*
X145841212Y-75124507D01*
X146116540Y-74849659D01*
X146265730Y-74490370D01*
X146265845Y-74357886D01*
X146363493Y-74594212D01*
X146363493Y-74594212D01*
G37*
X146363493Y-74594212D02*
X146638341Y-74869540D01*
X146997630Y-75018730D01*
X147386663Y-75019069D01*
X147746212Y-74870507D01*
X147815840Y-74801000D01*
X153105198Y-74801000D01*
X152720198Y-75186000D01*
X151003000Y-75186000D01*
X150712161Y-75243852D01*
X150465599Y-75408599D01*
X149392599Y-76481599D01*
X149227852Y-76728161D01*
X149170000Y-77019000D01*
X149170000Y-78165000D01*
X149015750Y-78165000D01*
X148857000Y-78323750D01*
X148857000Y-79373000D01*
X148877000Y-79373000D01*
X148877000Y-79627000D01*
X148857000Y-79627000D01*
X148857000Y-80676250D01*
X148961742Y-80780992D01*
X148875569Y-80907110D01*
X148824560Y-81159000D01*
X148824560Y-81401689D01*
X148636659Y-81213460D01*
X148277370Y-81064270D01*
X147888337Y-81063931D01*
X147528788Y-81212493D01*
X147253460Y-81487341D01*
X147104270Y-81846630D01*
X147103931Y-82235663D01*
X147252493Y-82595212D01*
X147322000Y-82664840D01*
X147322000Y-83185000D01*
X147379852Y-83475839D01*
X147544599Y-83722401D01*
X147576000Y-83753802D01*
X147576000Y-84112778D01*
X147525540Y-84102560D01*
X145925540Y-84102560D01*
X145772980Y-84131266D01*
X145772980Y-84100000D01*
X145728702Y-83864683D01*
X145589630Y-83648559D01*
X145509365Y-83593716D01*
X145543010Y-83427570D01*
X145543010Y-81926430D01*
X145498732Y-81691113D01*
X145359660Y-81474989D01*
X145147460Y-81329999D01*
X145034395Y-81307103D01*
X145122730Y-81094370D01*
X145123069Y-80705337D01*
X145003000Y-80414747D01*
X145003000Y-79727000D01*
X144253750Y-79727000D01*
X144095000Y-79885750D01*
X144095000Y-79921056D01*
X143951337Y-79920931D01*
X143591788Y-80069493D01*
X143316460Y-80344341D01*
X143263500Y-80471883D01*
X143263500Y-79135000D01*
X143544250Y-79135000D01*
X143703000Y-78976250D01*
X143703000Y-78227000D01*
X143957000Y-78227000D01*
X143957000Y-78976250D01*
X144095000Y-79114250D01*
X144095000Y-79314250D01*
X144253750Y-79473000D01*
X145003000Y-79473000D01*
X145003000Y-78775991D01*
X145065000Y-78626310D01*
X145065000Y-78523750D01*
X145257000Y-78523750D01*
X145257000Y-79473000D01*
X145277000Y-79473000D01*
X145277000Y-79727000D01*
X145257000Y-79727000D01*
X145257000Y-80676250D01*
X145415750Y-80835000D01*
X145656310Y-80835000D01*
X145726007Y-80806130D01*
X145930000Y-80847440D01*
X146730000Y-80847440D01*
X146938850Y-80808142D01*
X147003690Y-80835000D01*
X147244250Y-80835000D01*
X147403000Y-80676250D01*
X147403000Y-79627000D01*
X147657000Y-79627000D01*
X147657000Y-80676250D01*
X147815750Y-80835000D01*
X148056310Y-80835000D01*
X148130000Y-80804477D01*
X148203690Y-80835000D01*
X148444250Y-80835000D01*
X148603000Y-80676250D01*
X148603000Y-79627000D01*
X147657000Y-79627000D01*
X147403000Y-79627000D01*
X147383000Y-79627000D01*
X147383000Y-79373000D01*
X147403000Y-79373000D01*
X147403000Y-78323750D01*
X147657000Y-78323750D01*
X147657000Y-79373000D01*
X148603000Y-79373000D01*
X148603000Y-78323750D01*
X148444250Y-78165000D01*
X148203690Y-78165000D01*
X148130000Y-78195523D01*
X148056310Y-78165000D01*
X147815750Y-78165000D01*
X147657000Y-78323750D01*
X147403000Y-78323750D01*
X147244250Y-78165000D01*
X147003690Y-78165000D01*
X146933993Y-78193870D01*
X146730000Y-78152560D01*
X145930000Y-78152560D01*
X145694683Y-78196838D01*
X145478559Y-78335910D01*
X145458683Y-78365000D01*
X145415750Y-78365000D01*
X145257000Y-78523750D01*
X145065000Y-78523750D01*
X145065000Y-78385750D01*
X144906250Y-78227000D01*
X143957000Y-78227000D01*
X143703000Y-78227000D01*
X143683000Y-78227000D01*
X143683000Y-77973000D01*
X143703000Y-77973000D01*
X143703000Y-77953000D01*
X143957000Y-77953000D01*
X143957000Y-77973000D01*
X144906250Y-77973000D01*
X145065000Y-77814250D01*
X145065000Y-77774669D01*
X145081441Y-77764090D01*
X145226431Y-77551890D01*
X145277440Y-77300000D01*
X145277440Y-76500000D01*
X145238426Y-76292658D01*
X145277440Y-76100000D01*
X145277440Y-75300000D01*
X145272338Y-75272887D01*
X145481663Y-75273069D01*
X145841212Y-75124507D01*
X146116540Y-74849659D01*
X146265730Y-74490370D01*
X146265845Y-74357886D01*
X146363493Y-74594212D01*
G36*
X154364493Y-75864212D02*
X154639341Y-76139540D01*
X154998630Y-76288730D01*
X155122580Y-76288838D01*
X155292161Y-76402148D01*
X155583000Y-76460000D01*
X156990660Y-76460000D01*
X156982560Y-76500000D01*
X156982560Y-77300000D01*
X157026838Y-77535317D01*
X157165910Y-77751441D01*
X157195000Y-77771317D01*
X157195000Y-77814250D01*
X157353750Y-77973000D01*
X158303000Y-77973000D01*
X158303000Y-77953000D01*
X158557000Y-77953000D01*
X158557000Y-77973000D01*
X158577000Y-77973000D01*
X158577000Y-78227000D01*
X158557000Y-78227000D01*
X158557000Y-78976250D01*
X158715750Y-79135000D01*
X158996500Y-79135000D01*
X158996500Y-80082943D01*
X158786839Y-79942852D01*
X158496000Y-79885000D01*
X158164250Y-79885000D01*
X158006250Y-79727000D01*
X157257000Y-79727000D01*
X157257000Y-79747000D01*
X157003000Y-79747000D01*
X157003000Y-79727000D01*
X156983000Y-79727000D01*
X156983000Y-79473000D01*
X157003000Y-79473000D01*
X157003000Y-78523750D01*
X156865000Y-78385750D01*
X157195000Y-78385750D01*
X157195000Y-78626310D01*
X157257000Y-78775991D01*
X157257000Y-79473000D01*
X158006250Y-79473000D01*
X158165000Y-79314250D01*
X158165000Y-79114250D01*
X158303000Y-78976250D01*
X158303000Y-78227000D01*
X157353750Y-78227000D01*
X157195000Y-78385750D01*
X156865000Y-78385750D01*
X156844250Y-78365000D01*
X156804669Y-78365000D01*
X156794090Y-78348559D01*
X156581890Y-78203569D01*
X156330000Y-78152560D01*
X155530000Y-78152560D01*
X155322658Y-78191574D01*
X155130000Y-78152560D01*
X154330000Y-78152560D01*
X154122658Y-78191574D01*
X153930000Y-78152560D01*
X153130000Y-78152560D01*
X152922658Y-78191574D01*
X152730000Y-78152560D01*
X151930000Y-78152560D01*
X151721150Y-78191858D01*
X151674365Y-78172479D01*
X151726730Y-78046370D01*
X151727069Y-77657337D01*
X151578507Y-77297788D01*
X151303659Y-77022460D01*
X151090043Y-76933759D01*
X151317802Y-76706000D01*
X153035000Y-76706000D01*
X153325839Y-76648148D01*
X153572401Y-76483401D01*
X154313939Y-75741863D01*
X154364493Y-75864212D01*
X154364493Y-75864212D01*
G37*
X154364493Y-75864212D02*
X154639341Y-76139540D01*
X154998630Y-76288730D01*
X155122580Y-76288838D01*
X155292161Y-76402148D01*
X155583000Y-76460000D01*
X156990660Y-76460000D01*
X156982560Y-76500000D01*
X156982560Y-77300000D01*
X157026838Y-77535317D01*
X157165910Y-77751441D01*
X157195000Y-77771317D01*
X157195000Y-77814250D01*
X157353750Y-77973000D01*
X158303000Y-77973000D01*
X158303000Y-77953000D01*
X158557000Y-77953000D01*
X158557000Y-77973000D01*
X158577000Y-77973000D01*
X158577000Y-78227000D01*
X158557000Y-78227000D01*
X158557000Y-78976250D01*
X158715750Y-79135000D01*
X158996500Y-79135000D01*
X158996500Y-80082943D01*
X158786839Y-79942852D01*
X158496000Y-79885000D01*
X158164250Y-79885000D01*
X158006250Y-79727000D01*
X157257000Y-79727000D01*
X157257000Y-79747000D01*
X157003000Y-79747000D01*
X157003000Y-79727000D01*
X156983000Y-79727000D01*
X156983000Y-79473000D01*
X157003000Y-79473000D01*
X157003000Y-78523750D01*
X156865000Y-78385750D01*
X157195000Y-78385750D01*
X157195000Y-78626310D01*
X157257000Y-78775991D01*
X157257000Y-79473000D01*
X158006250Y-79473000D01*
X158165000Y-79314250D01*
X158165000Y-79114250D01*
X158303000Y-78976250D01*
X158303000Y-78227000D01*
X157353750Y-78227000D01*
X157195000Y-78385750D01*
X156865000Y-78385750D01*
X156844250Y-78365000D01*
X156804669Y-78365000D01*
X156794090Y-78348559D01*
X156581890Y-78203569D01*
X156330000Y-78152560D01*
X155530000Y-78152560D01*
X155322658Y-78191574D01*
X155130000Y-78152560D01*
X154330000Y-78152560D01*
X154122658Y-78191574D01*
X153930000Y-78152560D01*
X153130000Y-78152560D01*
X152922658Y-78191574D01*
X152730000Y-78152560D01*
X151930000Y-78152560D01*
X151721150Y-78191858D01*
X151674365Y-78172479D01*
X151726730Y-78046370D01*
X151727069Y-77657337D01*
X151578507Y-77297788D01*
X151303659Y-77022460D01*
X151090043Y-76933759D01*
X151317802Y-76706000D01*
X153035000Y-76706000D01*
X153325839Y-76648148D01*
X153572401Y-76483401D01*
X154313939Y-75741863D01*
X154364493Y-75864212D01*
G36*
X151257000Y-79373000D02*
X151277000Y-79373000D01*
X151277000Y-79627000D01*
X151257000Y-79627000D01*
X151257000Y-79647000D01*
X151003000Y-79647000D01*
X151003000Y-79627000D01*
X150983000Y-79627000D01*
X150983000Y-79373000D01*
X151003000Y-79373000D01*
X151003000Y-79353000D01*
X151257000Y-79353000D01*
X151257000Y-79373000D01*
X151257000Y-79373000D01*
G37*
X151257000Y-79373000D02*
X151277000Y-79373000D01*
X151277000Y-79627000D01*
X151257000Y-79627000D01*
X151257000Y-79647000D01*
X151003000Y-79647000D01*
X151003000Y-79627000D01*
X150983000Y-79627000D01*
X150983000Y-79373000D01*
X151003000Y-79373000D01*
X151003000Y-79353000D01*
X151257000Y-79353000D01*
X151257000Y-79373000D01*
G36*
X156995000Y-64373690D02*
X156995000Y-64614250D01*
X157153750Y-64773000D01*
X158203000Y-64773000D01*
X158203000Y-64753000D01*
X158457000Y-64753000D01*
X158457000Y-64773000D01*
X158477000Y-64773000D01*
X158477000Y-65027000D01*
X158457000Y-65027000D01*
X158457000Y-65973000D01*
X158477000Y-65973000D01*
X158477000Y-66227000D01*
X158457000Y-66227000D01*
X158457000Y-67173000D01*
X158477000Y-67173000D01*
X158477000Y-67427000D01*
X158457000Y-67427000D01*
X158457000Y-68373000D01*
X158477000Y-68373000D01*
X158477000Y-68627000D01*
X158457000Y-68627000D01*
X158457000Y-69573000D01*
X158477000Y-69573000D01*
X158477000Y-69827000D01*
X158457000Y-69827000D01*
X158457000Y-69847000D01*
X158203000Y-69847000D01*
X158203000Y-69827000D01*
X157153750Y-69827000D01*
X157080776Y-69899974D01*
X156806985Y-69626183D01*
X156807069Y-69529337D01*
X156658507Y-69169788D01*
X156383659Y-68894460D01*
X156121857Y-68785750D01*
X156995000Y-68785750D01*
X156995000Y-69026310D01*
X157025523Y-69100000D01*
X156995000Y-69173690D01*
X156995000Y-69414250D01*
X157153750Y-69573000D01*
X158203000Y-69573000D01*
X158203000Y-68627000D01*
X157153750Y-68627000D01*
X156995000Y-68785750D01*
X156121857Y-68785750D01*
X156024370Y-68745270D01*
X155635337Y-68744931D01*
X155275788Y-68893493D01*
X155000460Y-69168341D01*
X154851270Y-69527630D01*
X154850931Y-69916663D01*
X154999493Y-70276212D01*
X155274341Y-70551540D01*
X155633630Y-70700730D01*
X155732014Y-70700816D01*
X156244054Y-71212856D01*
X156212000Y-71374000D01*
X156212000Y-72075198D01*
X155768198Y-72519000D01*
X153924000Y-72519000D01*
X153633161Y-72576852D01*
X153386599Y-72741599D01*
X152847198Y-73281000D01*
X150456899Y-73281000D01*
X150457069Y-73085337D01*
X150308507Y-72725788D01*
X150033659Y-72450460D01*
X149810719Y-72357887D01*
X149821730Y-72331370D01*
X149822069Y-71942337D01*
X149673507Y-71582788D01*
X149398659Y-71307460D01*
X149039370Y-71158270D01*
X148650337Y-71157931D01*
X148290788Y-71306493D01*
X148221160Y-71376000D01*
X146618802Y-71376000D01*
X145605401Y-70362599D01*
X145358839Y-70197852D01*
X145261544Y-70178499D01*
X145277440Y-70100000D01*
X145277440Y-69300000D01*
X145238426Y-69092658D01*
X145277440Y-68900000D01*
X145277440Y-68100000D01*
X145238426Y-67892658D01*
X145277440Y-67700000D01*
X145277440Y-67585750D01*
X156995000Y-67585750D01*
X156995000Y-67826310D01*
X157025523Y-67900000D01*
X156995000Y-67973690D01*
X156995000Y-68214250D01*
X157153750Y-68373000D01*
X158203000Y-68373000D01*
X158203000Y-67427000D01*
X157153750Y-67427000D01*
X156995000Y-67585750D01*
X145277440Y-67585750D01*
X145277440Y-66900000D01*
X145238142Y-66691150D01*
X145265000Y-66626310D01*
X145265000Y-66385750D01*
X156995000Y-66385750D01*
X156995000Y-66626310D01*
X157025523Y-66700000D01*
X156995000Y-66773690D01*
X156995000Y-67014250D01*
X157153750Y-67173000D01*
X158203000Y-67173000D01*
X158203000Y-66227000D01*
X157153750Y-66227000D01*
X156995000Y-66385750D01*
X145265000Y-66385750D01*
X145106250Y-66227000D01*
X144057000Y-66227000D01*
X144057000Y-66247000D01*
X143803000Y-66247000D01*
X143803000Y-66227000D01*
X143783000Y-66227000D01*
X143783000Y-65973000D01*
X143803000Y-65973000D01*
X143803000Y-65027000D01*
X144057000Y-65027000D01*
X144057000Y-65973000D01*
X145106250Y-65973000D01*
X145265000Y-65814250D01*
X145265000Y-65573690D01*
X145234477Y-65500000D01*
X145265000Y-65426310D01*
X145265000Y-65185750D01*
X156995000Y-65185750D01*
X156995000Y-65426310D01*
X157025523Y-65500000D01*
X156995000Y-65573690D01*
X156995000Y-65814250D01*
X157153750Y-65973000D01*
X158203000Y-65973000D01*
X158203000Y-65027000D01*
X157153750Y-65027000D01*
X156995000Y-65185750D01*
X145265000Y-65185750D01*
X145106250Y-65027000D01*
X144057000Y-65027000D01*
X143803000Y-65027000D01*
X143783000Y-65027000D01*
X143783000Y-64773000D01*
X143803000Y-64773000D01*
X143803000Y-64753000D01*
X144057000Y-64753000D01*
X144057000Y-64773000D01*
X145106250Y-64773000D01*
X145265000Y-64614250D01*
X145265000Y-64373690D01*
X145218736Y-64262000D01*
X157041264Y-64262000D01*
X156995000Y-64373690D01*
X156995000Y-64373690D01*
G37*
X156995000Y-64373690D02*
X156995000Y-64614250D01*
X157153750Y-64773000D01*
X158203000Y-64773000D01*
X158203000Y-64753000D01*
X158457000Y-64753000D01*
X158457000Y-64773000D01*
X158477000Y-64773000D01*
X158477000Y-65027000D01*
X158457000Y-65027000D01*
X158457000Y-65973000D01*
X158477000Y-65973000D01*
X158477000Y-66227000D01*
X158457000Y-66227000D01*
X158457000Y-67173000D01*
X158477000Y-67173000D01*
X158477000Y-67427000D01*
X158457000Y-67427000D01*
X158457000Y-68373000D01*
X158477000Y-68373000D01*
X158477000Y-68627000D01*
X158457000Y-68627000D01*
X158457000Y-69573000D01*
X158477000Y-69573000D01*
X158477000Y-69827000D01*
X158457000Y-69827000D01*
X158457000Y-69847000D01*
X158203000Y-69847000D01*
X158203000Y-69827000D01*
X157153750Y-69827000D01*
X157080776Y-69899974D01*
X156806985Y-69626183D01*
X156807069Y-69529337D01*
X156658507Y-69169788D01*
X156383659Y-68894460D01*
X156121857Y-68785750D01*
X156995000Y-68785750D01*
X156995000Y-69026310D01*
X157025523Y-69100000D01*
X156995000Y-69173690D01*
X156995000Y-69414250D01*
X157153750Y-69573000D01*
X158203000Y-69573000D01*
X158203000Y-68627000D01*
X157153750Y-68627000D01*
X156995000Y-68785750D01*
X156121857Y-68785750D01*
X156024370Y-68745270D01*
X155635337Y-68744931D01*
X155275788Y-68893493D01*
X155000460Y-69168341D01*
X154851270Y-69527630D01*
X154850931Y-69916663D01*
X154999493Y-70276212D01*
X155274341Y-70551540D01*
X155633630Y-70700730D01*
X155732014Y-70700816D01*
X156244054Y-71212856D01*
X156212000Y-71374000D01*
X156212000Y-72075198D01*
X155768198Y-72519000D01*
X153924000Y-72519000D01*
X153633161Y-72576852D01*
X153386599Y-72741599D01*
X152847198Y-73281000D01*
X150456899Y-73281000D01*
X150457069Y-73085337D01*
X150308507Y-72725788D01*
X150033659Y-72450460D01*
X149810719Y-72357887D01*
X149821730Y-72331370D01*
X149822069Y-71942337D01*
X149673507Y-71582788D01*
X149398659Y-71307460D01*
X149039370Y-71158270D01*
X148650337Y-71157931D01*
X148290788Y-71306493D01*
X148221160Y-71376000D01*
X146618802Y-71376000D01*
X145605401Y-70362599D01*
X145358839Y-70197852D01*
X145261544Y-70178499D01*
X145277440Y-70100000D01*
X145277440Y-69300000D01*
X145238426Y-69092658D01*
X145277440Y-68900000D01*
X145277440Y-68100000D01*
X145238426Y-67892658D01*
X145277440Y-67700000D01*
X145277440Y-67585750D01*
X156995000Y-67585750D01*
X156995000Y-67826310D01*
X157025523Y-67900000D01*
X156995000Y-67973690D01*
X156995000Y-68214250D01*
X157153750Y-68373000D01*
X158203000Y-68373000D01*
X158203000Y-67427000D01*
X157153750Y-67427000D01*
X156995000Y-67585750D01*
X145277440Y-67585750D01*
X145277440Y-66900000D01*
X145238142Y-66691150D01*
X145265000Y-66626310D01*
X145265000Y-66385750D01*
X156995000Y-66385750D01*
X156995000Y-66626310D01*
X157025523Y-66700000D01*
X156995000Y-66773690D01*
X156995000Y-67014250D01*
X157153750Y-67173000D01*
X158203000Y-67173000D01*
X158203000Y-66227000D01*
X157153750Y-66227000D01*
X156995000Y-66385750D01*
X145265000Y-66385750D01*
X145106250Y-66227000D01*
X144057000Y-66227000D01*
X144057000Y-66247000D01*
X143803000Y-66247000D01*
X143803000Y-66227000D01*
X143783000Y-66227000D01*
X143783000Y-65973000D01*
X143803000Y-65973000D01*
X143803000Y-65027000D01*
X144057000Y-65027000D01*
X144057000Y-65973000D01*
X145106250Y-65973000D01*
X145265000Y-65814250D01*
X145265000Y-65573690D01*
X145234477Y-65500000D01*
X145265000Y-65426310D01*
X145265000Y-65185750D01*
X156995000Y-65185750D01*
X156995000Y-65426310D01*
X157025523Y-65500000D01*
X156995000Y-65573690D01*
X156995000Y-65814250D01*
X157153750Y-65973000D01*
X158203000Y-65973000D01*
X158203000Y-65027000D01*
X157153750Y-65027000D01*
X156995000Y-65185750D01*
X145265000Y-65185750D01*
X145106250Y-65027000D01*
X144057000Y-65027000D01*
X143803000Y-65027000D01*
X143783000Y-65027000D01*
X143783000Y-64773000D01*
X143803000Y-64773000D01*
X143803000Y-64753000D01*
X144057000Y-64753000D01*
X144057000Y-64773000D01*
X145106250Y-64773000D01*
X145265000Y-64614250D01*
X145265000Y-64373690D01*
X145218736Y-64262000D01*
X157041264Y-64262000D01*
X156995000Y-64373690D01*
M02*
