G04 #@! TF.FileFunction,Legend,Bot*
%FSLAX46Y46*%
G04 Gerber Fmt 4.6, Leading zero omitted, Abs format (unit mm)*
G04 Created by KiCad (PCBNEW 4.0.0-rc1-stable) date 11/12/2015 8:05:50 PM*
%MOMM*%
G01*
G04 APERTURE LIST*
%ADD10C,0.100000*%
%ADD11C,0.150000*%
%ADD12C,0.250190*%
%ADD13C,0.251460*%
G04 APERTURE END LIST*
D10*
D11*
X150018000Y-68418000D02*
X150718000Y-68418000D01*
X150718000Y-67218000D02*
X150018000Y-67218000D01*
X150718000Y-65440000D02*
X150018000Y-65440000D01*
X150018000Y-66640000D02*
X150718000Y-66640000D01*
X158072000Y-66590000D02*
X156172000Y-66590000D01*
X158072000Y-65490000D02*
X156172000Y-65490000D01*
X157172000Y-66040000D02*
X156722000Y-66040000D01*
X157222000Y-65790000D02*
X157222000Y-66290000D01*
X157222000Y-66040000D02*
X156972000Y-65790000D01*
X156972000Y-65790000D02*
X156972000Y-66290000D01*
X156972000Y-66290000D02*
X157222000Y-66040000D01*
X158072000Y-68368000D02*
X156172000Y-68368000D01*
X158072000Y-67268000D02*
X156172000Y-67268000D01*
X157172000Y-67818000D02*
X156722000Y-67818000D01*
X157222000Y-67568000D02*
X157222000Y-68068000D01*
X157222000Y-67818000D02*
X156972000Y-67568000D01*
X156972000Y-67568000D02*
X156972000Y-68068000D01*
X156972000Y-68068000D02*
X157222000Y-67818000D01*
X157217000Y-85716000D02*
X157217000Y-84941000D01*
X152917000Y-81416000D02*
X152917000Y-82191000D01*
X157217000Y-81416000D02*
X157217000Y-82191000D01*
X152917000Y-85716000D02*
X153692000Y-85716000D01*
X152917000Y-81416000D02*
X153692000Y-81416000D01*
X157217000Y-81416000D02*
X156442000Y-81416000D01*
X157217000Y-85716000D02*
X156442000Y-85716000D01*
X145466000Y-66502000D02*
G75*
G03X145466000Y-66502000I-100000J0D01*
G01*
X145616000Y-67052000D02*
X145616000Y-66552000D01*
X148516000Y-67052000D02*
X145616000Y-67052000D01*
X148516000Y-66552000D02*
X148516000Y-67052000D01*
X145616000Y-66552000D02*
X148516000Y-66552000D01*
X154424000Y-65365000D02*
X153424000Y-65365000D01*
X153424000Y-66715000D02*
X154424000Y-66715000D01*
X144915000Y-70271000D02*
X145915000Y-70271000D01*
X145915000Y-68921000D02*
X144915000Y-68921000D01*
X153424000Y-68493000D02*
X154424000Y-68493000D01*
X154424000Y-67143000D02*
X153424000Y-67143000D01*
X153424000Y-70398000D02*
X154424000Y-70398000D01*
X154424000Y-69048000D02*
X153424000Y-69048000D01*
X153317000Y-76645000D02*
X153417000Y-76645000D01*
X156817000Y-76645000D02*
X156717000Y-76645000D01*
X156717000Y-71945000D02*
X156817000Y-71945000D01*
X153317000Y-71945000D02*
X153417000Y-71945000D01*
X154717000Y-71945000D02*
X155417000Y-71945000D01*
X154717000Y-76645000D02*
X155417000Y-76645000D01*
X153317000Y-76645000D02*
X153317000Y-71945000D01*
X156817000Y-71945000D02*
X156817000Y-76645000D01*
X155967000Y-74295000D02*
G75*
G03X155967000Y-74295000I-900000J0D01*
G01*
X156043190Y-80716381D02*
X156043190Y-79716381D01*
X154995571Y-80621143D02*
X155043190Y-80668762D01*
X155186047Y-80716381D01*
X155281285Y-80716381D01*
X155424143Y-80668762D01*
X155519381Y-80573524D01*
X155567000Y-80478286D01*
X155614619Y-80287810D01*
X155614619Y-80144952D01*
X155567000Y-79954476D01*
X155519381Y-79859238D01*
X155424143Y-79764000D01*
X155281285Y-79716381D01*
X155186047Y-79716381D01*
X155043190Y-79764000D01*
X154995571Y-79811619D01*
X154043190Y-80716381D02*
X154614619Y-80716381D01*
X154328905Y-80716381D02*
X154328905Y-79716381D01*
X154424143Y-79859238D01*
X154519381Y-79954476D01*
X154614619Y-80002095D01*
D12*
X147677656Y-87828725D02*
X147677656Y-86827965D01*
X147296414Y-86827965D01*
X147201103Y-86875620D01*
X147153448Y-86923275D01*
X147105793Y-87018586D01*
X147105793Y-87161551D01*
X147153448Y-87256862D01*
X147201103Y-87304517D01*
X147296414Y-87352172D01*
X147677656Y-87352172D01*
X146724551Y-86923275D02*
X146676896Y-86875620D01*
X146581585Y-86827965D01*
X146343309Y-86827965D01*
X146247999Y-86875620D01*
X146200343Y-86923275D01*
X146152688Y-87018586D01*
X146152688Y-87113896D01*
X146200343Y-87256862D01*
X146772206Y-87828725D01*
X146152688Y-87828725D01*
D13*
D11*
X144946619Y-66643262D02*
X144899000Y-66548024D01*
X144803762Y-66452786D01*
X144660905Y-66309929D01*
X144613286Y-66214690D01*
X144613286Y-66119452D01*
X144851381Y-66167071D02*
X144803762Y-66071833D01*
X144708524Y-65976595D01*
X144518048Y-65928976D01*
X144184714Y-65928976D01*
X143994238Y-65976595D01*
X143899000Y-66071833D01*
X143851381Y-66167071D01*
X143851381Y-66357548D01*
X143899000Y-66452786D01*
X143994238Y-66548024D01*
X144184714Y-66595643D01*
X144518048Y-66595643D01*
X144708524Y-66548024D01*
X144803762Y-66452786D01*
X144851381Y-66357548D01*
X144851381Y-66167071D01*
X144851381Y-67548024D02*
X144851381Y-66976595D01*
X144851381Y-67262309D02*
X143851381Y-67262309D01*
X143994238Y-67167071D01*
X144089476Y-67071833D01*
X144137095Y-66976595D01*
X145581666Y-71635881D02*
X145915000Y-71159690D01*
X146153095Y-71635881D02*
X146153095Y-70635881D01*
X145772142Y-70635881D01*
X145676904Y-70683500D01*
X145629285Y-70731119D01*
X145581666Y-70826357D01*
X145581666Y-70969214D01*
X145629285Y-71064452D01*
X145676904Y-71112071D01*
X145772142Y-71159690D01*
X146153095Y-71159690D01*
X145200714Y-70731119D02*
X145153095Y-70683500D01*
X145057857Y-70635881D01*
X144819761Y-70635881D01*
X144724523Y-70683500D01*
X144676904Y-70731119D01*
X144629285Y-70826357D01*
X144629285Y-70921595D01*
X144676904Y-71064452D01*
X145248333Y-71635881D01*
X144629285Y-71635881D01*
X158075262Y-72644167D02*
X158122881Y-72787024D01*
X158122881Y-73025120D01*
X158075262Y-73120358D01*
X158027643Y-73167977D01*
X157932405Y-73215596D01*
X157837167Y-73215596D01*
X157741929Y-73167977D01*
X157694310Y-73120358D01*
X157646690Y-73025120D01*
X157599071Y-72834643D01*
X157551452Y-72739405D01*
X157503833Y-72691786D01*
X157408595Y-72644167D01*
X157313357Y-72644167D01*
X157218119Y-72691786D01*
X157170500Y-72739405D01*
X157122881Y-72834643D01*
X157122881Y-73072739D01*
X157170500Y-73215596D01*
X157122881Y-73548929D02*
X158122881Y-73787024D01*
X157408595Y-73977501D01*
X158122881Y-74167977D01*
X157122881Y-74406072D01*
X158122881Y-75310834D02*
X158122881Y-74739405D01*
X158122881Y-75025119D02*
X157122881Y-75025119D01*
X157265738Y-74929881D01*
X157360976Y-74834643D01*
X157408595Y-74739405D01*
X149097905Y-73366381D02*
X148526476Y-73366381D01*
X148812191Y-74366381D02*
X148812191Y-73366381D01*
X148240762Y-73461619D02*
X148193143Y-73414000D01*
X148097905Y-73366381D01*
X147859809Y-73366381D01*
X147764571Y-73414000D01*
X147716952Y-73461619D01*
X147669333Y-73556857D01*
X147669333Y-73652095D01*
X147716952Y-73794952D01*
X148288381Y-74366381D01*
X147669333Y-74366381D01*
X148208905Y-71461381D02*
X147637476Y-71461381D01*
X147923191Y-72461381D02*
X147923191Y-71461381D01*
X146780333Y-72461381D02*
X147351762Y-72461381D01*
X147066048Y-72461381D02*
X147066048Y-71461381D01*
X147161286Y-71604238D01*
X147256524Y-71699476D01*
X147351762Y-71747095D01*
X149732905Y-75398381D02*
X149161476Y-75398381D01*
X149447191Y-76398381D02*
X149447191Y-75398381D01*
X148923381Y-75398381D02*
X148304333Y-75398381D01*
X148637667Y-75779333D01*
X148494809Y-75779333D01*
X148399571Y-75826952D01*
X148351952Y-75874571D01*
X148304333Y-75969810D01*
X148304333Y-76207905D01*
X148351952Y-76303143D01*
X148399571Y-76350762D01*
X148494809Y-76398381D01*
X148780524Y-76398381D01*
X148875762Y-76350762D01*
X148923381Y-76303143D01*
X149732905Y-69302381D02*
X149161476Y-69302381D01*
X149447191Y-70302381D02*
X149447191Y-69302381D01*
X148637667Y-69302381D02*
X148542428Y-69302381D01*
X148447190Y-69350000D01*
X148399571Y-69397619D01*
X148351952Y-69492857D01*
X148304333Y-69683333D01*
X148304333Y-69921429D01*
X148351952Y-70111905D01*
X148399571Y-70207143D01*
X148447190Y-70254762D01*
X148542428Y-70302381D01*
X148637667Y-70302381D01*
X148732905Y-70254762D01*
X148780524Y-70207143D01*
X148828143Y-70111905D01*
X148875762Y-69921429D01*
X148875762Y-69683333D01*
X148828143Y-69492857D01*
X148780524Y-69397619D01*
X148732905Y-69350000D01*
X148637667Y-69302381D01*
M02*
