G04 #@! TF.FileFunction,Soldermask,Bot*
%FSLAX46Y46*%
G04 Gerber Fmt 4.6, Leading zero omitted, Abs format (unit mm)*
G04 Created by KiCad (PCBNEW 4.0.0-rc1-stable) date 11/12/2015 8:05:50 PM*
%MOMM*%
G01*
G04 APERTURE LIST*
%ADD10C,0.100000*%
%ADD11R,1.200000X1.150000*%
%ADD12R,1.197560X1.197560*%
%ADD13R,1.130000X0.700000*%
%ADD14R,0.700000X1.130000*%
%ADD15R,1.700000X1.700000*%
%ADD16R,1.198120X3.698120*%
%ADD17R,1.698120X3.598120*%
%ADD18R,2.127200X2.127200*%
%ADD19O,2.127200X2.127200*%
%ADD20R,1.050000X1.460000*%
%ADD21R,0.900000X1.300000*%
%ADD22R,1.100000X1.850000*%
%ADD23R,1.901140X1.901140*%
G04 APERTURE END LIST*
D10*
D11*
X149618000Y-67818000D03*
X151118000Y-67818000D03*
X151118000Y-66040000D03*
X149618000Y-66040000D03*
D12*
X156222700Y-66040000D03*
X157721300Y-66040000D03*
X156222700Y-67818000D03*
X157721300Y-67818000D03*
D13*
X153102000Y-84566000D03*
X153102000Y-84066000D03*
X153102000Y-83566000D03*
X153102000Y-83066000D03*
X153102000Y-82566000D03*
D14*
X154067000Y-81601000D03*
X154567000Y-81601000D03*
X155067000Y-81601000D03*
X155567000Y-81601000D03*
X156067000Y-81601000D03*
D13*
X157032000Y-82566000D03*
X157032000Y-83066000D03*
X157032000Y-83566000D03*
X157032000Y-84066000D03*
X157032000Y-84566000D03*
D14*
X156067000Y-85531000D03*
X155567000Y-85531000D03*
X155067000Y-85531000D03*
X154567000Y-85531000D03*
X154067000Y-85531000D03*
D15*
X155717000Y-82916000D03*
X155717000Y-84216000D03*
X154417000Y-82916000D03*
X154417000Y-84216000D03*
D16*
X146320000Y-91948000D03*
X148320000Y-91948000D03*
D17*
X150670000Y-86398000D03*
X143970000Y-86398000D03*
D18*
X157480000Y-92456000D03*
D19*
X154940000Y-92456000D03*
X157480000Y-89916000D03*
X154940000Y-89916000D03*
X157480000Y-87376000D03*
X154940000Y-87376000D03*
D20*
X146116000Y-65702000D03*
X147066000Y-65702000D03*
X148016000Y-65702000D03*
X148016000Y-67902000D03*
X146116000Y-67902000D03*
D21*
X153174000Y-66040000D03*
X154674000Y-66040000D03*
X146165000Y-69596000D03*
X144665000Y-69596000D03*
X154674000Y-67818000D03*
X153174000Y-67818000D03*
X154674000Y-69723000D03*
X153174000Y-69723000D03*
D22*
X154067000Y-76870000D03*
X154067000Y-71720000D03*
X156067000Y-71720000D03*
X156067000Y-76870000D03*
D23*
X150876000Y-73914000D03*
X150876000Y-72009000D03*
X150876000Y-75946000D03*
X150876000Y-69723000D03*
M02*
