G04 #@! TF.FileFunction,Soldermask,Top*
%FSLAX46Y46*%
G04 Gerber Fmt 4.6, Leading zero omitted, Abs format (unit mm)*
G04 Created by KiCad (PCBNEW 4.0.0-rc1-stable) date 11/12/2015 8:05:50 PM*
%MOMM*%
G01*
G04 APERTURE LIST*
%ADD10C,0.100000*%
%ADD11R,1.200000X1.600000*%
%ADD12R,1.600000X1.200000*%
%ADD13R,1.800000X1.200000*%
%ADD14R,1.200000X1.800000*%
%ADD15R,1.200000X1.150000*%
%ADD16R,2.300000X2.300000*%
%ADD17R,2.000000X2.500000*%
%ADD18R,1.750000X0.800000*%
%ADD19R,2.127200X2.127200*%
%ADD20O,2.127200X2.127200*%
%ADD21R,1.850000X1.100000*%
%ADD22R,1.901140X1.901140*%
%ADD23R,1.150000X1.200000*%
%ADD24R,1.200100X1.200100*%
%ADD25R,0.900000X1.300000*%
G04 APERTURE END LIST*
D10*
D11*
X145130000Y-79600000D03*
D12*
X158430000Y-78100000D03*
D13*
X143930000Y-64900000D03*
D12*
X143830000Y-78100000D03*
D14*
X146330000Y-79500000D03*
X147530000Y-79500000D03*
X148730000Y-79500000D03*
X149930000Y-79500000D03*
X151130000Y-79500000D03*
X152330000Y-79500000D03*
X153530000Y-79500000D03*
X154730000Y-79500000D03*
X155930000Y-79500000D03*
D11*
X157130000Y-79600000D03*
D13*
X143930000Y-66100000D03*
X143930000Y-67300000D03*
X143930000Y-68500000D03*
X143930000Y-69700000D03*
X143930000Y-70900000D03*
X143930000Y-72100000D03*
X143930000Y-73300000D03*
X143930000Y-74500000D03*
X143930000Y-75700000D03*
X143930000Y-76900000D03*
X158330000Y-76900000D03*
X158330000Y-75700000D03*
X158330000Y-74500000D03*
X158330000Y-73300000D03*
X158330000Y-72100000D03*
X158330000Y-70900000D03*
X158330000Y-69700000D03*
X158330000Y-68500000D03*
X158330000Y-67300000D03*
X158330000Y-66100000D03*
X158330000Y-64900000D03*
D15*
X151372000Y-81534000D03*
X149872000Y-81534000D03*
D16*
X144175540Y-92750000D03*
X144175540Y-85050000D03*
X144175540Y-87700000D03*
D17*
X146725540Y-85800000D03*
D18*
X146850540Y-87599100D03*
X146850540Y-88249100D03*
X146850540Y-88899100D03*
X146850540Y-89549100D03*
X146850540Y-90199100D03*
D17*
X146725540Y-92000000D03*
D16*
X144175540Y-90100000D03*
D19*
X157480000Y-92456000D03*
D20*
X154940000Y-92456000D03*
X157480000Y-89916000D03*
X154940000Y-89916000D03*
X157480000Y-87376000D03*
X154940000Y-87376000D03*
D21*
X149571000Y-85455000D03*
X154721000Y-85455000D03*
X154721000Y-83455000D03*
X149571000Y-83455000D03*
D22*
X144145000Y-82677000D03*
D23*
X149225000Y-90690000D03*
X149225000Y-92190000D03*
D24*
X152842000Y-90312240D03*
X150942000Y-90312240D03*
X151892000Y-92311220D03*
D25*
X152642000Y-88773000D03*
X151142000Y-88773000D03*
M02*
