G04 #@! TF.FileFunction,Legend,Top*
%FSLAX46Y46*%
G04 Gerber Fmt 4.6, Leading zero omitted, Abs format (unit mm)*
G04 Created by KiCad (PCBNEW 4.0.0-rc1-stable) date 11/12/2015 8:05:50 PM*
%MOMM*%
G01*
G04 APERTURE LIST*
%ADD10C,0.100000*%
%ADD11C,0.150000*%
G04 APERTURE END LIST*
D10*
D11*
X143930000Y-64100000D02*
X158330000Y-64100000D01*
X143930000Y-60200000D02*
X143930000Y-79500000D01*
X158330000Y-60200000D02*
X158330000Y-79500000D01*
X143930000Y-60200000D02*
X158330000Y-60200000D01*
X143930000Y-79500000D02*
X158330000Y-79500000D01*
X150972000Y-82134000D02*
X150272000Y-82134000D01*
X150272000Y-80934000D02*
X150972000Y-80934000D01*
X141470540Y-84549100D02*
X141470540Y-93249100D01*
X147875540Y-84549100D02*
X147875540Y-93249100D01*
X147875540Y-93249100D02*
X141470540Y-93249100D01*
X142700540Y-93249100D02*
X142700540Y-84549100D01*
X141470540Y-84549100D02*
X147875540Y-84549100D01*
X158750000Y-91186000D02*
X158750000Y-86106000D01*
X159030000Y-94006000D02*
X157480000Y-94006000D01*
X156210000Y-93726000D02*
X156210000Y-91186000D01*
X156210000Y-91186000D02*
X158750000Y-91186000D01*
X158750000Y-86106000D02*
X153670000Y-86106000D01*
X153670000Y-86106000D02*
X153670000Y-91186000D01*
X159030000Y-94006000D02*
X159030000Y-92456000D01*
X153670000Y-93726000D02*
X156210000Y-93726000D01*
X153670000Y-91186000D02*
X153670000Y-93726000D01*
X149796000Y-86205000D02*
X149796000Y-86105000D01*
X149796000Y-82705000D02*
X149796000Y-82805000D01*
X154496000Y-82805000D02*
X154496000Y-82705000D01*
X154496000Y-86205000D02*
X154496000Y-86105000D01*
X154496000Y-84805000D02*
X154496000Y-84105000D01*
X149796000Y-84805000D02*
X149796000Y-84105000D01*
X149796000Y-86205000D02*
X154496000Y-86205000D01*
X154496000Y-82705000D02*
X149796000Y-82705000D01*
X153046000Y-84455000D02*
G75*
G03X153046000Y-84455000I-900000J0D01*
G01*
X149825000Y-91090000D02*
X149825000Y-91790000D01*
X148625000Y-91790000D02*
X148625000Y-91090000D01*
X150592840Y-91963240D02*
X150641100Y-91963240D01*
X153391820Y-91262200D02*
X153391820Y-91963240D01*
X153391820Y-91963240D02*
X153142900Y-91963240D01*
X150592840Y-91963240D02*
X150392180Y-91963240D01*
X150392180Y-91963240D02*
X150392180Y-91262200D01*
X151392000Y-88098000D02*
X152392000Y-88098000D01*
X152392000Y-89448000D02*
X151392000Y-89448000D01*
X149868096Y-71112071D02*
X150010953Y-71159690D01*
X150058572Y-71207310D01*
X150106191Y-71302548D01*
X150106191Y-71445405D01*
X150058572Y-71540643D01*
X150010953Y-71588262D01*
X149915715Y-71635881D01*
X149534762Y-71635881D01*
X149534762Y-70635881D01*
X149868096Y-70635881D01*
X149963334Y-70683500D01*
X150010953Y-70731119D01*
X150058572Y-70826357D01*
X150058572Y-70921595D01*
X150010953Y-71016833D01*
X149963334Y-71064452D01*
X149868096Y-71112071D01*
X149534762Y-71112071D01*
X151010953Y-71635881D02*
X150534762Y-71635881D01*
X150534762Y-70635881D01*
X151344286Y-71112071D02*
X151677620Y-71112071D01*
X151820477Y-71635881D02*
X151344286Y-71635881D01*
X151344286Y-70635881D01*
X151820477Y-70635881D01*
X152772858Y-71635881D02*
X152201429Y-71635881D01*
X152487143Y-71635881D02*
X152487143Y-70635881D01*
X152391905Y-70778738D01*
X152296667Y-70873976D01*
X152201429Y-70921595D01*
X147955429Y-61476000D02*
X147860191Y-61428381D01*
X147717334Y-61428381D01*
X147574476Y-61476000D01*
X147479238Y-61571238D01*
X147431619Y-61666476D01*
X147384000Y-61856952D01*
X147384000Y-61999810D01*
X147431619Y-62190286D01*
X147479238Y-62285524D01*
X147574476Y-62380762D01*
X147717334Y-62428381D01*
X147812572Y-62428381D01*
X147955429Y-62380762D01*
X148003048Y-62333143D01*
X148003048Y-61999810D01*
X147812572Y-61999810D01*
X148431619Y-62428381D02*
X148431619Y-61428381D01*
X149003048Y-62428381D01*
X149003048Y-61428381D01*
X149479238Y-62428381D02*
X149479238Y-61428381D01*
X149717333Y-61428381D01*
X149860191Y-61476000D01*
X149955429Y-61571238D01*
X150003048Y-61666476D01*
X150050667Y-61856952D01*
X150050667Y-61999810D01*
X150003048Y-62190286D01*
X149955429Y-62285524D01*
X149860191Y-62380762D01*
X149717333Y-62428381D01*
X149479238Y-62428381D01*
X151812572Y-62333143D02*
X151764953Y-62380762D01*
X151622096Y-62428381D01*
X151526858Y-62428381D01*
X151384000Y-62380762D01*
X151288762Y-62285524D01*
X151241143Y-62190286D01*
X151193524Y-61999810D01*
X151193524Y-61856952D01*
X151241143Y-61666476D01*
X151288762Y-61571238D01*
X151384000Y-61476000D01*
X151526858Y-61428381D01*
X151622096Y-61428381D01*
X151764953Y-61476000D01*
X151812572Y-61523619D01*
X152717334Y-62428381D02*
X152241143Y-62428381D01*
X152241143Y-61428381D01*
X153050667Y-61904571D02*
X153384001Y-61904571D01*
X153526858Y-62428381D02*
X153050667Y-62428381D01*
X153050667Y-61428381D01*
X153526858Y-61428381D01*
X153907810Y-62142667D02*
X154384001Y-62142667D01*
X153812572Y-62428381D02*
X154145905Y-61428381D01*
X154479239Y-62428381D01*
X155384001Y-62428381D02*
X155050667Y-61952190D01*
X154812572Y-62428381D02*
X154812572Y-61428381D01*
X155193525Y-61428381D01*
X155288763Y-61476000D01*
X155336382Y-61523619D01*
X155384001Y-61618857D01*
X155384001Y-61761714D01*
X155336382Y-61856952D01*
X155288763Y-61904571D01*
X155193525Y-61952190D01*
X154812572Y-61952190D01*
X148105834Y-81510143D02*
X148058215Y-81557762D01*
X147915358Y-81605381D01*
X147820120Y-81605381D01*
X147677262Y-81557762D01*
X147582024Y-81462524D01*
X147534405Y-81367286D01*
X147486786Y-81176810D01*
X147486786Y-81033952D01*
X147534405Y-80843476D01*
X147582024Y-80748238D01*
X147677262Y-80653000D01*
X147820120Y-80605381D01*
X147915358Y-80605381D01*
X148058215Y-80653000D01*
X148105834Y-80700619D01*
X148439167Y-80605381D02*
X149058215Y-80605381D01*
X148724881Y-80986333D01*
X148867739Y-80986333D01*
X148962977Y-81033952D01*
X149010596Y-81081571D01*
X149058215Y-81176810D01*
X149058215Y-81414905D01*
X149010596Y-81510143D01*
X148962977Y-81557762D01*
X148867739Y-81605381D01*
X148582024Y-81605381D01*
X148486786Y-81557762D01*
X148439167Y-81510143D01*
X148907667Y-87399762D02*
X149050524Y-87447381D01*
X149288620Y-87447381D01*
X149383858Y-87399762D01*
X149431477Y-87352143D01*
X149479096Y-87256905D01*
X149479096Y-87161667D01*
X149431477Y-87066429D01*
X149383858Y-87018810D01*
X149288620Y-86971190D01*
X149098143Y-86923571D01*
X149002905Y-86875952D01*
X148955286Y-86828333D01*
X148907667Y-86733095D01*
X148907667Y-86637857D01*
X148955286Y-86542619D01*
X149002905Y-86495000D01*
X149098143Y-86447381D01*
X149336239Y-86447381D01*
X149479096Y-86495000D01*
X149812429Y-86447381D02*
X150050524Y-87447381D01*
X150241001Y-86733095D01*
X150431477Y-87447381D01*
X150669572Y-86447381D01*
X151002905Y-86542619D02*
X151050524Y-86495000D01*
X151145762Y-86447381D01*
X151383858Y-86447381D01*
X151479096Y-86495000D01*
X151526715Y-86542619D01*
X151574334Y-86637857D01*
X151574334Y-86733095D01*
X151526715Y-86875952D01*
X150955286Y-87447381D01*
X151574334Y-87447381D01*
X145288095Y-82129381D02*
X145859524Y-82129381D01*
X145573809Y-83129381D02*
X145573809Y-82129381D01*
X146621429Y-82462714D02*
X146621429Y-83129381D01*
X146383333Y-82081762D02*
X146145238Y-82796048D01*
X146764286Y-82796048D01*
X150399762Y-93765619D02*
X150304524Y-93718000D01*
X150209286Y-93622762D01*
X150066429Y-93479905D01*
X149971190Y-93432286D01*
X149875952Y-93432286D01*
X149923571Y-93670381D02*
X149828333Y-93622762D01*
X149733095Y-93527524D01*
X149685476Y-93337048D01*
X149685476Y-93003714D01*
X149733095Y-92813238D01*
X149828333Y-92718000D01*
X149923571Y-92670381D01*
X150114048Y-92670381D01*
X150209286Y-92718000D01*
X150304524Y-92813238D01*
X150352143Y-93003714D01*
X150352143Y-93337048D01*
X150304524Y-93527524D01*
X150209286Y-93622762D01*
X150114048Y-93670381D01*
X149923571Y-93670381D01*
X150733095Y-92765619D02*
X150780714Y-92718000D01*
X150875952Y-92670381D01*
X151114048Y-92670381D01*
X151209286Y-92718000D01*
X151256905Y-92765619D01*
X151304524Y-92860857D01*
X151304524Y-92956095D01*
X151256905Y-93098952D01*
X150685476Y-93670381D01*
X151304524Y-93670381D01*
M02*
