M48
METRIC,TZ
T1C0.330
T2C1.016
%
G90
G05
T1
X144145Y-80899
X145288Y-66802
X145288Y-74295
X145415Y-73152
X147193Y-74041
X148082Y-82042
X148844Y-72136
X149225Y-89408
X149479Y-73279
X150114Y-88646
X150749Y-77851
X151892Y-93345
X152146Y-87376
X152273Y-67691
X152527Y-74930
X152654Y-77597
X153162Y-81280
X155194Y-75311
X155829Y-69723
X157099Y-85471
X157861Y-81407
X158623Y-83058
T2
X154940Y-87376
X154940Y-89916
X154940Y-92456
X157480Y-87376
X157480Y-89916
X157480Y-92456
T0
M30
